<svg version="1.1" viewBox="0.0 0.0 256.0 256.0" fill="none" stroke="none" stroke-linecap="square" stroke-miterlimit="10" xmlns:xlink="http://www.w3.org/1999/xlink" xmlns="http://www.w3.org/2000/svg"><clipPath id="p.0"><path d="m0 0l256.0 0l0 256.0l-256.0 0l0 -256.0z" clip-rule="nonzero"/></clipPath><g clip-path="url(#p.0)"><path fill="#000000" fill-opacity="0.0" d="m0 0l256.0 0l0 256.0l-256.0 0z" fill-rule="evenodd"/><path fill="#000000" fill-opacity="0.0" d="m16.327866 -6.3991113l191.33858 0l0 236.7874l-191.33858 0z" fill-rule="evenodd"/><path fill="#134f5c" d="m76.39351 140.02585l0 57.03125l20.171875 0q4.03125 0 5.71875 1.5q1.703125 1.5 1.703125 3.96875q0 2.34375 -1.703125 3.90625q-1.6875 1.5625 -5.71875 1.5625l-45.828125 0q-3.90625 0 -5.609375 -1.5625q-1.6875 -1.5625 -1.6875 -3.90625q0 -2.46875 1.6875 -3.96875q1.703125 -1.5 5.609375 -1.5l14.71875 0l0 -130.46875l-14.71875 0q-3.90625 0 -5.609375 -1.484375q-1.6875 -1.5000038 -1.6875 -3.9843788q0 -2.46875 1.6875 -3.96875q1.703125 -1.5 5.609375 -1.5l66.140625 0q20.4375 0 34.4375 12.968754q14.0 12.953125 14.0 29.21875q0 11.71875 -8.65625 22.078125q-8.65625 10.34375 -28.96875 17.25q11.71875 8.0625 20.046875 18.21875q8.328125 10.15625 26.6875 41.671875l8.34375 0q3.90625 0 5.59375 1.5q1.6875 1.5 1.6875 3.96875q0 2.34375 -1.6875 3.90625q-1.6875 1.5625 -5.59375 1.5625l-14.59375 0q-20.3125 -36.328125 -31.453125 -48.6875q-11.125 -12.375 -25.578125 -19.28125l-34.75 0zm0 -10.9375l29.8125 0q14.3125 0 25.96875 -5.203125q11.65625 -5.203125 16.921875 -12.234375q5.28125 -7.03125 5.28125 -14.328125q0 -10.9375 -11.0 -20.828125q-11.0 -9.90625 -26.765625 -9.90625l-40.21875 0l0 62.5z" fill-rule="nonzero"/><path fill="#000000" fill-opacity="0.0" d="m31.228346 10.141732l177.5433 0l0 219.71652l-177.5433 0z" fill-rule="evenodd"/><path fill="#9fc5e8" d="m84.396355 148.03127l0 57.03125l20.171875 0q4.03125 0 5.71875 1.5q1.703125 1.5 1.703125 3.96875q0 2.34375 -1.703125 3.90625q-1.6875 1.5625 -5.71875 1.5625l-45.828125 0q-3.90625 0 -5.609375 -1.5625q-1.6875 -1.5625 -1.6875 -3.90625q0 -2.46875 1.6875 -3.96875q1.703125 -1.5 5.609375 -1.5l14.71875 0l0 -130.46875l-14.71875 0q-3.90625 0 -5.609375 -1.484375q-1.6875 -1.5 -1.6875 -3.984375q0 -2.46875 1.6875 -3.96875q1.703125 -1.5 5.609375 -1.5l66.140625 0q20.437492 0 34.437492 12.96875q14.0 12.953125 14.0 29.21875q0 11.71875 -8.65625 22.078125q-8.65625 10.343758 -28.96875 17.250008q11.71875 8.0625 20.046875 18.21875q8.328125 10.15625 26.6875 41.671875l8.34375 0q3.90625 0 5.59375 1.5q1.6875 1.5 1.6875 3.96875q0 2.34375 -1.6875 3.90625q-1.6875 1.5625 -5.59375 1.5625l-14.59375 0q-20.3125 -36.328125 -31.453125 -48.6875q-11.125 -12.375 -25.578117 -19.28125l-34.75 0zm0 -10.9375l29.8125 0q14.312492 0 25.968742 -5.203125q11.65625 -5.2031326 16.921875 -12.234383q5.28125 -7.03125 5.28125 -14.328125q0 -10.9375 -11.0 -20.828125q-11.0 -9.90625 -26.765617 -9.90625l-40.21875 0l0 62.500008z" fill-rule="nonzero"/><path fill="#000000" fill-opacity="0.0" d="m21.589931 -3.6900978l212.8189 0l0 263.3701l-212.8189 0z" fill-rule="evenodd"/><path fill="#000000" d="m92.39573 156.0262l0 57.03125l20.171875 0q4.03125 0 5.71875 1.5q1.703125 1.5 1.703125 3.96875q0 2.34375 -1.703125 3.90625q-1.6875 1.5625 -5.71875 1.5625l-45.828125 0q-3.9062462 0 -5.609371 -1.5625q-1.6875 -1.5625 -1.6875 -3.90625q0 -2.46875 1.6875 -3.96875q1.703125 -1.5 5.609371 -1.5l14.71875 0l0 -130.46875l-14.71875 0q-3.9062462 0 -5.609371 -1.484375q-1.6875 -1.5 -1.6875 -3.984375q0 -2.46875 1.6875 -3.96875q1.703125 -1.5 5.609371 -1.5l66.14063 0q20.4375 0 34.4375 12.96875q14.0 12.953125 14.0 29.21875q0 11.71875 -8.65625 22.078133q-8.65625 10.34375 -28.96875 17.25q11.71875 8.0625 20.046875 18.21875q8.328125 10.15625 26.6875 41.671875l8.34375 0q3.90625 0 5.59375 1.5q1.6875 1.5 1.6875 3.96875q0 2.34375 -1.6875 3.90625q-1.6875 1.5625 -5.59375 1.5625l-14.59375 0q-20.3125 -36.328125 -31.453125 -48.6875q-11.125 -12.375 -25.578133 -19.28125l-34.75 0zm0 -10.9375l29.8125 0q14.312508 0 25.968758 -5.203125q11.65625 -5.203125 16.921875 -12.234383q5.28125 -7.03125 5.28125 -14.328125q0 -10.9375 -11.0 -20.828125q-11.0 -9.90625 -26.765625 -9.90625l-40.218758 0l0 62.500008z" fill-rule="nonzero"/><path fill="#000000" fill-opacity="0.0" d="m13.401575 242.87665l229.19684 0" fill-rule="evenodd"/><path stroke="#134f5c" stroke-width="12.0" stroke-linejoin="round" stroke-linecap="butt" d="m13.401575 242.87665l229.19684 0" fill-rule="evenodd"/></g></svg>