<svg version="1.1" viewBox="0.0 0.0 256.0 256.0" fill="none" stroke="none" stroke-linecap="square" stroke-miterlimit="10" xmlns:xlink="http://www.w3.org/1999/xlink" xmlns="http://www.w3.org/2000/svg"><clipPath id="p.0"><path d="m0 0l256.0 0l0 256.0l-256.0 0l0 -256.0z" clip-rule="nonzero"/></clipPath><g clip-path="url(#p.0)"><path fill="#000000" fill-opacity="0.0" d="m0 0l256.0 0l0 256.0l-256.0 0z" fill-rule="evenodd"/><path fill="#000000" d="m13.041995 8.303968l45.66929 0l0 239.39206l-45.66929 0z" fill-rule="evenodd"/><path stroke="#000000" stroke-width="1.0" stroke-linejoin="round" stroke-linecap="butt" d="m13.041995 8.303968l45.66929 0l0 239.39206l-45.66929 0z" fill-rule="evenodd"/><path fill="#ff00ff" d="m58.711285 8.303968l0 31.019922l-26.29921 -31.019922z" fill-rule="evenodd"/><path stroke="#ff00ff" stroke-width="1.0" stroke-linejoin="round" stroke-linecap="butt" d="m58.711285 8.303968l0 31.019922l-26.29921 -31.019922z" fill-rule="evenodd"/><path fill="#ff00ff" d="m74.457565 8.303968l45.669296 0l0 239.39206l-45.669296 0z" fill-rule="evenodd"/><path stroke="#000000" stroke-width="1.0" stroke-linejoin="round" stroke-linecap="butt" d="m74.457565 8.303968l45.669296 0l0 239.39206l-45.669296 0z" fill-rule="evenodd"/><path fill="#000000" d="m120.12686 8.303968l0 31.019922l-26.299217 -31.019922z" fill-rule="evenodd"/><path stroke="#000000" stroke-width="1.0" stroke-linejoin="round" stroke-linecap="butt" d="m120.12686 8.303968l0 31.019922l-26.299217 -31.019922z" fill-rule="evenodd"/><path fill="#000000" d="m135.87314 8.303968l45.669296 0l0 239.39206l-45.669296 0z" fill-rule="evenodd"/><path stroke="#000000" stroke-width="1.0" stroke-linejoin="round" stroke-linecap="butt" d="m135.87314 8.303968l45.669296 0l0 239.39206l-45.669296 0z" fill-rule="evenodd"/><path fill="#ff00ff" d="m181.54243 8.303968l0 31.019922l-26.29921 -31.019922z" fill-rule="evenodd"/><path stroke="#ff00ff" stroke-width="1.0" stroke-linejoin="round" stroke-linecap="butt" d="m181.54243 8.303968l0 31.019922l-26.29921 -31.019922z" fill-rule="evenodd"/><path fill="#ff00ff" d="m197.28871 8.303968l45.669296 0l0 239.39206l-45.669296 0z" fill-rule="evenodd"/><path stroke="#000000" stroke-width="1.0" stroke-linejoin="round" stroke-linecap="butt" d="m197.28871 8.303968l45.669296 0l0 239.39206l-45.669296 0z" fill-rule="evenodd"/><path fill="#000000" d="m242.95801 8.303968l0 31.019922l-26.29921 -31.019922z" fill-rule="evenodd"/><path stroke="#000000" stroke-width="1.0" stroke-linejoin="round" stroke-linecap="butt" d="m242.95801 8.303968l0 31.019922l-26.29921 -31.019922z" fill-rule="evenodd"/></g></svg>