<?xml version="1.0" standalone="no"?>
<!DOCTYPE svg PUBLIC "-//W3C//DTD SVG 20010904//EN"
 "http://www.w3.org/TR/2001/REC-SVG-20010904/DTD/svg10.dtd">
<svg version="1.0" xmlns="http://www.w3.org/2000/svg"
 width="700.000000pt" height="700.000000pt" viewBox="0 0 700.000000 700.000000"
 preserveAspectRatio="xMidYMid meet">
<metadata>
Created by potrace 1.14, written by Peter Selinger 2001-2017
</metadata>
<g transform="translate(0.000000,700.000000) scale(0.100000,-0.100000)"
fill="#000000" stroke="none">
<path d="M346 6771 c-6 -21 -6 -6510 -1 -6537 4 -20 5 -20 632 -19 346 1 631
3 636 3 4 1 6 1479 5 3285 l-3 3282 -632 1 c-564 0 -633 -2 -637 -15z"/>
<path d="M2025 6775 c-2 -5 -3 -1484 -2 -3285 l2 -3275 625 -1 c344 0 630 1
637 3 9 4 11 781 10 3286 l-2 3282 -634 0 c-430 1 -634 -3 -636 -10z"/>
<path d="M3710 6780 c-6 -4 -9 -1212 -7 -3285 l2 -3280 625 -1 c344 0 630 1
636 3 8 3 11 904 10 3286 l-1 3282 -628 1 c-345 0 -632 -3 -637 -6z"/>
<path d="M5384 6776 c-2 -6 -3 -1485 -2 -3286 l3 -3275 635 0 635 0 0 3285 0
3285 -634 1 c-438 0 -634 -3 -637 -10z"/>
</g>
</svg>
