<?xml version="1.0" standalone="no"?>
<!DOCTYPE svg PUBLIC "-//W3C//DTD SVG 20010904//EN"
 "http://www.w3.org/TR/2001/REC-SVG-20010904/DTD/svg10.dtd">
<svg version="1.0" xmlns="http://www.w3.org/2000/svg"
 width="700.000000pt" height="700.000000pt" viewBox="0 0 700.000000 700.000000"
 preserveAspectRatio="xMidYMid meet">
<metadata>
Created by potrace 1.14, written by Peter Selinger 2001-2017
</metadata>
<g transform="translate(0.000000,700.000000) scale(0.100000,-0.100000)"
fill="#000000" stroke="none">
<path d="M1301 5468 c-74 -20 -111 -66 -111 -138 0 -51 20 -92 60 -120 31 -22
53 -27 128 -29 39 -1 43 -3 37 -22 -12 -38 -7 -88 12 -121 31 -53 83 -75 185
-77 24 -1 26 -4 19 -28 -25 -91 27 -165 132 -187 l27 -6 0 -1565 0 -1564 -232
0 c-234 -1 -284 -7 -322 -40 -62 -54 -61 -163 2 -217 31 -28 75 -39 160 -43
20 -1 22 -5 16 -23 -30 -96 38 -182 152 -192 27 -2 54 -4 61 -5 8 -1 9 -10 4
-28 -19 -67 12 -133 79 -166 l45 -22 700 1 c676 0 701 0 740 19 60 30 88 78
83 143 -7 86 -62 128 -173 134 l-50 3 0 67 c0 60 -3 70 -29 97 -34 35 -79 51
-148 51 l-47 0 6 33 c3 17 6 34 6 37 1 3 -2 22 -6 42 -7 36 -62 96 -90 99 -7
1 -59 4 -117 8 l-104 6 0 553 c1 376 4 556 12 560 5 4 221 6 479 6 l468 -2 85
-46 c47 -26 130 -77 185 -114 94 -64 104 -74 192 -197 150 -211 403 -621 611
-990 l43 -76 46 2 45 3 62 -109 62 -110 47 -1 c26 0 48 -2 50 -5 2 -2 30 -50
62 -106 31 -56 62 -103 69 -105 6 -3 112 -4 236 -3 210 1 228 2 270 23 25 12
54 35 64 52 22 38 23 107 2 148 -20 39 -86 70 -156 75 -41 3 -54 7 -51 18 2 8
3 35 3 61 -1 87 -65 137 -177 139 -34 1 -52 6 -50 13 11 32 12 81 3 108 -22
64 -76 94 -173 97 -33 2 -63 4 -66 7 -4 2 -39 57 -80 121 -279 450 -358 553
-657 854 -123 125 -225 230 -226 234 0 4 37 21 84 40 392 151 634 342 783 615
44 80 82 193 95 280 9 61 8 241 -2 286 -40 186 -86 292 -194 443 -45 64 -597
624 -682 692 -150 121 -347 219 -510 255 -19 4 -37 8 -40 9 -3 1 -24 5 -48 9
-23 4 -54 10 -70 13 -50 10 -2066 11 -2101 1z m2338 -729 c182 -4 311 -30 454
-94 64 -28 76 -46 106 -155 27 -97 24 -238 -8 -330 -33 -96 -101 -205 -176
-285 -162 -171 -510 -335 -805 -380 -25 -4 -54 -10 -65 -12 -38 -9 -615 -15
-616 -7 0 5 -1 291 -2 636 l-2 628 215 2 c233 3 684 2 899 -3z m641 -1032 c0
-1 -30 -32 -67 -67 l-68 -65 65 68 c60 62 70 72 70 64z m-140 -131 c0 -2 -8
-10 -17 -17 -16 -13 -17 -12 -4 4 13 16 21 21 21 13z m-40 -30 c0 -2 -8 -10
-17 -17 -16 -13 -17 -12 -4 4 13 16 21 21 21 13z m400 -59 c0 -1 -24 -25 -52
-52 l-53 -50 50 53 c46 48 55 57 55 49z m-121 -120 c-2 -1 -13 -9 -24 -17 -19
-14 -19 -14 -6 3 7 9 18 17 24 17 6 0 8 -1 6 -3z m-49 -31 c0 -2 -8 -10 -17
-17 -16 -13 -17 -12 -4 4 13 16 21 21 21 13z"/>
<path d="M371 515 c-5 -8 -7 -237 -2 -305 1 -14 333 -15 3130 -16 2799 0 3130
2 3133 16 2 8 3 82 3 164 l-1 149 -3128 1 c-2075 1 -3130 -2 -3135 -9z"/>
</g>
</svg>
